<svg xmlns="http://www.w3.org/2000/svg" xmlns:xlink="http://www.w3.org/1999/xlink" id="Layer_1" width="9" height="26" x="0" y="0" enable-background="new 0 0 9 26" version="1.1" viewBox="0 0 9 26" xml:space="preserve"><g class="burger-icon"><linearGradient id="vertical-line_1_" x1="0" x2="0" y1="307.313" y2="306.313" gradientTransform="matrix(1 0 0 -24 1.5 7376)" gradientUnits="userSpaceOnUse"><stop offset="0" stop-color="#FFF"/><stop offset=".15" stop-color="#99A1B5"/><stop offset=".85" stop-color="#99A1B5"/><stop offset="1" stop-color="#FFF"/></linearGradient><path id="vertical-line" fill="none" stroke="url(#vertical-line_1_)" d="M1.5,0.5v24"/><path id="line-bottom" fill="#99A1B5" d="M2,16h6c0.552,0,1,0.448,1,1v1c0,0.552-0.448,1-1,1H2c-0.552,0-1-0.448-1-1v-1 C1,16.448,1.448,16,2,16z"/><path id="line-middle" fill="#99A1B5" d="M2,11h6c0.552,0,1,0.448,1,1v1c0,0.552-0.448,1-1,1H2c-0.552,0-1-0.448-1-1v-1 C1,11.448,1.448,11,2,11z"/><path id="line-top" fill="#99A1B5" d="M2,6h6c0.552,0,1,0.448,1,1v1c0,0.552-0.448,1-1,1H2C1.448,9,1,8.552,1,8V7 C1,6.448,1.448,6,2,6z"/></g></svg>