<svg xmlns="http://www.w3.org/2000/svg" xmlns:xlink="http://www.w3.org/1999/xlink" id="Layer_1" width="39" height="39" x="0" y="0" enable-background="new 0 0 39 39" version="1.1" viewBox="0 0 39 39" xml:space="preserve"><title>Logo Mask</title><defs><mask id="logo_mask"><polyline id="background-path" fill="none" stroke="#FFF" stroke-linecap="round" stroke-linejoin="bevel" stroke-width="2" points="4.067 25.485 18.306 11.462 25.656 4.062 18.306 11.462 7.155 6.775 37.428 19.5 1.325 19.5 3.979 13.707 25.969 34.651 19.376 37.495 37.428 19.5" opacity=".15"/><polygon id="path-1_2_" fill="none" stroke="#FFF" stroke-width="2" points="19.376 1.504 31.597 6.775 37.428 19.5 31.597 32.224 19.376 37.495 7.155 32.224 1.325 19.5 7.155 6.775"/><polyline id="back-arrow" fill="none" stroke="#FFF" stroke-width="2" points="18.708 27.833 10.031 19.5 18.708 11.083 10.156 19.666 10.542 19.5 29.75 19.5"/></mask></defs><g id="Page-1"><polyline id="background-path" fill="none" stroke="#FFF" stroke-linecap="round" stroke-linejoin="bevel" stroke-width="2" points="4.067 25.485 18.306 11.462 25.656 4.062 18.306 11.462 7.155 6.775 37.428 19.5 1.325 19.5 3.979 13.707 25.969 34.651 19.376 37.495 37.428 19.5" opacity=".15"/><polygon id="path-1_2_" fill="none" stroke="#FFF" stroke-width="2" points="19.376 1.504 31.597 6.775 37.428 19.5 31.597 32.224 19.376 37.495 7.155 32.224 1.325 19.5 7.155 6.775"/><polyline id="back-arrow" fill="none" stroke="#FFF" stroke-width="2" points="18.708 27.833 10.031 19.5 18.708 11.083 10.156 19.666 10.542 19.5 29.75 19.5"/></g></svg>